<svg xmlns="http://www.w3.org/2000/svg" viewBox="0 0 147.23 258.37"><defs><style>.cls-1{fill:#2031e5;}.cls-2{fill:#fc3e46;}.cls-3{fill:#fff33d;}.cls-4{fill:#fff;}.cls-5{fill:#0048ff;}</style></defs><title>Middel 3</title><g id="Laag_2" data-name="Laag 2"><g id="CAD_logo_horizontal_full" data-name="CAD logo horizontal full"><path class="cls-1" d="M100.67,31.11c-13.8,5.44-21.59-4.36-21.59-4.36s-1.66-2.42,2.26-2.62a59,59,0,0,1,7.8.57A90.94,90.94,0,0,1,100.67,31.11Z"/><path class="cls-2" d="M93,76.55c-9.7,0-10.29,7-10.29,7s-1.31,7.76,8.12,3.19c0,0,9.71-5.29,11,3.31a24.78,24.78,0,0,0,1.68-8.24C100.94,76.48,93,76.55,93,76.55Z"/><path class="cls-3" d="M23.49,50.37,33.72,46l2.71,15.41.08.47a3.59,3.59,0,0,0,.33,1,3.51,3.51,0,0,0,4.72,1.53l13.25-6.76,7,6.7a1.93,1.93,0,0,0,2.84-2.61l-7.37-9.11a2.43,2.43,0,0,0-2.7-.75l-.31.11L43.51,55.87l-.89-17.55a5.08,5.08,0,0,0-.18-1.08,4.8,4.8,0,0,0-5.94-3.3l-.6.17L19.4,38.82a6.77,6.77,0,0,0-.71.26,6.13,6.13,0,1,0,4.8,11.29Z"/><path class="cls-3" d="M64.34,71.55l-14.83-2a2.56,2.56,0,0,0-2.45,1.08l-.17.24L38.7,82.7,28.17,67a4.57,4.57,0,0,0-.56-.69,4.71,4.71,0,0,0-6.68,0l-.34.33L1.82,85.11l-.37.41a6.13,6.13,0,1,0,9.36,7.92L24.18,77.63,35.69,91.49l.23.28a3.46,3.46,0,0,0,1,.81,3.59,3.59,0,0,0,4.9-1.33l9.15-16,13.11.17a1.94,1.94,0,0,0,.29-3.86Z"/><path class="cls-4" d="M92.46,119.71c-3-.92-3.43-3.07-3.43-3.07a7.94,7.94,0,0,1-.47-3.32c12.86-2.19,26-13.58,33.13-30.29,9.7-22.8,4.52-46.84-11.59-53.7-12-5.13-26.77.79-37.49,13.62,0,0-6,6.81,5.36,7.43,9.4,1,17.29,6.46,22.14,16.33,6.45,13.12,3.39,27.83-6.84,32.86-9.12,4.49-19.73,1.65-26.63-8.8,0,0-2.53-4.11-4.5-.16a9.85,9.85,0,0,0,0,8.4,25.36,25.36,0,0,0,12.29,12.62h-.07a4.9,4.9,0,0,1-.79,3.41s-.83,1.53-3.55,1.75c0,0-9.74.84-16.28,5.13v0c-26,14-38.78,51.93-39.32,53.55a8.5,8.5,0,1,0,16.15,5.31c2.24-6.81,9.1-22.63,19.26-34-17.84,43.53-14,111.62-14,111.62H58.45c-5.21-37.26,5.54-39,5.54-39s10.16-4.88,21.5,39H110.9S90,209.83,100.21,153.66c4.47,10.53,9.31,25.76,8.81,41.64a8.49,8.49,0,0,0,8.22,8.76h.28a8.5,8.5,0,0,0,8.49-8.23c1.08-34-17.75-64.13-18.55-65.4C103.69,123.32,92.46,119.71,92.46,119.71Z"/><path class="cls-5" d="M145.32,39.2C125.75,13.65,103.15,1.92,103.15,1.92c-9.06-5.27-8.79,2-8.79,2l.3,10.71L89.14,24.7h0a59,59,0,0,0-7.8-.57c-3.92.2-2.26,2.62-2.26,2.62s7.79,9.8,21.59,4.36c8.11,5.22,18.73,13.61,25.76,25.07l9.13-6.66,8.05-2S150.45,46.22,145.32,39.2Z"/></g></g></svg>