<svg xmlns="http://www.w3.org/2000/svg" viewBox="0 0 140.65 67.14"><defs><style>.cls-1{fill:#2031e5;}.cls-2{fill:#fff;}.cls-3{fill:#0048ff;}.cls-4{fill:#fc3e46;}.cls-5{fill:#fff33d;}</style></defs><title>me_to_police</title><g id="Laag_2" data-name="Laag 2"><g id="cad_logo_vertical" data-name="cad logo vertical"><path class="cls-1" d="M128.55,8.08A4.82,4.82,0,0,1,122.94,7s-.43-.63.59-.68a14.88,14.88,0,0,1,2,.15A23.78,23.78,0,0,1,128.55,8.08Z"/><path class="cls-2" d="M126.42,31.11a1.19,1.19,0,0,1-.89-.8,2,2,0,0,1-.12-.87c3.34-.56,6.75-3.52,8.6-7.87,2.53-5.92,1.18-12.17-3-13.95-3.13-1.33-7,.21-9.74,3.54A20.94,20.94,0,0,0,118,20.57c-.18,2.26-.39,4.76,1.08,5.95,2.34,1.9,7.49-.71,7.51-.65a4.58,4.58,0,0,1-2.5.53,5.76,5.76,0,0,1-4.42-2.81s-.66-1.07-1.17-.05a2.57,2.57,0,0,0,0,2.19,6.68,6.68,0,0,0,3.2,3.28h0a1.3,1.3,0,0,1-.21.89,1.08,1.08,0,0,1-.92.45,10.67,10.67,0,0,0-4.23,1.34h0c-6.77,3.63-10.08,13.5-10.22,13.92a2.2,2.2,0,0,0,1.41,2.78,2.09,2.09,0,0,0,.69.12,2.21,2.21,0,0,0,2.1-1.52,28.2,28.2,0,0,1,5-8.85c-4.63,11.31-3.63,29-3.63,29h5.87C116.23,57.45,119,57,119,57s2.64-1.26,5.59,10.13h6.6a52.23,52.23,0,0,1-2.78-27.21,26.26,26.26,0,0,1,2.29,10.82A2.2,2.2,0,0,0,132.86,53h.07a2.22,2.22,0,0,0,2.21-2.14c.28-8.83-4.61-16.67-4.82-17C129.34,32,126.42,31.11,126.42,31.11Z"/><path class="cls-3" d="M140.16,10.19A37,37,0,0,0,129.2.5c-2.36-1.37-2.29.52-2.29.52L127,3.8l-1.43,2.62h0a14.88,14.88,0,0,0-2-.15c-1,.05-.59.68-.59.68a4.82,4.82,0,0,0,5.61,1.13,21.62,21.62,0,0,1,6.7,6.52l2.37-1.73,2.09-.53S141.49,12,140.16,10.19Z"/><path class="cls-4" d="M8.73,19.89c2.52,0,2.68,1.81,2.68,1.81s.34,2-2.11.82c0,0-2.53-1.37-2.86.87A6.28,6.28,0,0,1,6,21.24C6.66,19.87,8.73,19.89,8.73,19.89Z"/><path class="cls-5" d="M26.79,13.09,24.13,12l-.71,4,0,.12a.87.87,0,0,1-.08.26.92.92,0,0,1-1.23.39L18.65,15l-1.81,1.74a.5.5,0,0,1-.66,0A.51.51,0,0,1,16.1,16L18,13.67a.61.61,0,0,1,.7-.19l.08,0,2.78,1L21.82,10a1.35,1.35,0,0,1,0-.28,1.25,1.25,0,0,1,1.55-.86l.15,0,4.29,1.23.18.06a1.6,1.6,0,1,1-1.24,2.94Z"/><path class="cls-5" d="M16.17,18.59,20,18.07a.66.66,0,0,1,.63.28l.05.06,2.12,3.08,2.74-4.08a.84.84,0,0,1,.15-.18,1.21,1.21,0,0,1,1.73,0l.09.08,4.88,4.82.09.1a1.59,1.59,0,1,1-2.43,2.06l-3.47-4.11-3,3.6-.06.08a1.09,1.09,0,0,1-.26.21A.94.94,0,0,1,22,23.71l-2.38-4.16-3.4,0a.5.5,0,0,1-.08-1Z"/><path class="cls-2" d="M8.87,31.11a1.21,1.21,0,0,0,.89-.8,2.23,2.23,0,0,0,.12-.87c-3.34-.56-6.76-3.52-8.61-7.87C-1.25,15.65.1,9.4,4.28,7.62c3.13-1.33,7,.21,9.74,3.54,0,0,1.55,1.77-1.39,1.93a7.14,7.14,0,0,0-5.75,4.24C5.2,20.74,6,24.57,8.65,25.87c2.38,1.17,5.13.43,6.92-2.28,0,0,.66-1.07,1.17-.05a2.57,2.57,0,0,1,0,2.19A6.62,6.62,0,0,1,13.55,29h0a1.27,1.27,0,0,0,.2.89,1.11,1.11,0,0,0,.93.45,10.67,10.67,0,0,1,4.23,1.34h0C25.69,35.31,29,45.18,29.15,45.6a2.2,2.2,0,0,1-1.41,2.78,2.09,2.09,0,0,1-.69.12A2.21,2.21,0,0,1,25,47a28.4,28.4,0,0,0-5-8.85c4.63,11.31,3.63,29,3.63,29H17.7C19.06,57.45,16.26,57,16.26,57s-2.64-1.26-5.58,10.13H4.07A52.23,52.23,0,0,0,6.85,39.93,26.42,26.42,0,0,0,4.56,50.75,2.2,2.2,0,0,1,2.43,53H2.35a2.21,2.21,0,0,1-2.2-2.14c-.28-8.83,4.61-16.67,4.82-17C6,32,8.87,31.11,8.87,31.11Z"/><path class="cls-5" d="M71.66,36.47c-3.72,0-7.4,0-11.09,0a1.59,1.59,0,0,1-1.71-1.72c.06-.83,0-1.67,0-2.5a1.46,1.46,0,0,1,1.6-1.61H71.64l.08-.11a2.18,2.18,0,0,1-.31-.22l-3.85-3.85a1.48,1.48,0,0,1,0-2.27c.61-.63,1.23-1.24,1.85-1.86a1.48,1.48,0,0,1,2.25,0l10.1,10.09a1.49,1.49,0,0,1,0,2.27l-10,10a1.49,1.49,0,0,1-2.33,0L67.6,43a1.45,1.45,0,0,1,0-2.37l3.79-3.8C71.49,36.71,71.61,36.65,71.66,36.47Z"/></g></g></svg>