<svg xmlns="http://www.w3.org/2000/svg" viewBox="0 0 218.15 631.49"><defs><style>.cls-1{fill:#fff;}</style></defs><title>Middel 1</title><g id="Laag_2" data-name="Laag 2"><g id="Laag_1-2" data-name="Laag 1"><path class="cls-1" d="M.08,318.24c0,17.46.16,34.93-.06,52.39a143.72,143.72,0,0,0,4,34.21,111.31,111.31,0,0,0,20.88,44c1.2,1.54,3,2.61,4.45,4,1.08,1,2.45,2.05,3,3.36a78.39,78.39,0,0,1,4.38,12.75c2.38,11.38,4.47,22.82,6.4,34.28,5.59,33.23,11,66.48,16.59,99.7a37.25,37.25,0,0,0,14.69,24.4,20.29,20.29,0,0,0,12.59,4.18c14.48-.09,29-.13,43.45,0a21.67,21.67,0,0,0,14.13-4.9c7.6-6,11.84-14.09,13.65-23.48,1.17-6.05,2-12.17,3-18.26q8.87-53,17.76-106A94.13,94.13,0,0,1,184.65,458c.71-1.7,1.64-3.84,3.08-4.6,3.8-2,6-5.31,8.33-8.58,15.29-21.6,21.59-46.09,21.9-72.12.42-36.11,0-72.23.16-108.34a65.31,65.31,0,0,0-8.05-32.42c-5.12-9.33-11.81-17.15-21.2-22.48a109.07,109.07,0,0,0-19.12-8.54A101.7,101.7,0,0,0,135.59,195c-19.35.26-38.7.07-58,.08-1.54,0-3.08,0-4.61.19-11.8,1.11-23,4.48-33.88,9-12.48,5.2-22.81,13-29.71,24.87C3.47,239.33-.17,250,0,261.93.29,280.69.08,299.47.08,318.24ZM195.27,88.56C195.83,40.61,156.88,1.43,109.75,0,58.8-1.46,19.1,39.58,18.52,87.23A88.71,88.71,0,0,0,105.76,177C155.71,177.64,195.87,136.74,195.27,88.56Z"/><path d="M.08,318.24c0-18.77.21-37.55-.07-56.31-.18-12,3.46-22.6,9.33-32.74,6.9-11.92,17.23-19.67,29.71-24.87,10.89-4.53,22.08-7.9,33.88-9,1.53-.15,3.07-.19,4.61-.19,19.35,0,38.7.18,58.05-.08a101.7,101.7,0,0,1,34.16,5.84,109.07,109.07,0,0,1,19.12,8.54c9.39,5.33,16.08,13.15,21.2,22.48a65.31,65.31,0,0,1,8.05,32.42c-.16,36.11.26,72.23-.16,108.34-.31,26-6.61,50.52-21.9,72.12-2.32,3.27-4.53,6.58-8.33,8.58-1.44.76-2.37,2.9-3.08,4.6a94.13,94.13,0,0,0-5.71,20.89q-9,53-17.76,106c-1,6.09-1.84,12.21-3,18.26-1.81,9.39-6,17.45-13.65,23.48a21.67,21.67,0,0,1-14.13,4.9c-14.49-.14-29-.1-43.45,0a20.29,20.29,0,0,1-12.59-4.18,37.25,37.25,0,0,1-14.69-24.4c-5.61-33.22-11-66.47-16.59-99.7-1.93-11.46-4-22.9-6.4-34.28a78.39,78.39,0,0,0-4.38-12.75c-.52-1.31-1.89-2.32-3-3.36-1.44-1.37-3.25-2.44-4.45-4A111.31,111.31,0,0,1,4,404.84a143.72,143.72,0,0,1-4-34.21C.24,353.17.08,335.7.08,318.24Z"/><path d="M195.27,88.56c.6,48.18-39.56,89.08-89.51,88.46A88.71,88.71,0,0,1,18.52,87.23C19.1,39.58,58.8-1.46,109.75,0,156.88,1.43,195.83,40.61,195.27,88.56Z"/></g></g></svg>