<svg xmlns="http://www.w3.org/2000/svg" viewBox="0 0 143.57 67.14"><defs><style>.cls-1{fill:#2031e5;}.cls-2{fill:#fc3e46;}.cls-3{fill:#fff33d;}.cls-4{fill:#fff;}.cls-5{fill:#0048ff;}</style></defs><title>police_to_me</title><g id="Laag_2" data-name="Laag 2"><g id="cad_logo_vertical" data-name="cad logo vertical"><path class="cls-1" d="M131.48,8.08A4.83,4.83,0,0,1,125.86,7s-.43-.63.59-.68a14.88,14.88,0,0,1,2,.15A24.24,24.24,0,0,1,131.48,8.08Z"/><path class="cls-2" d="M129.47,19.89c-2.52,0-2.67,1.81-2.67,1.81s-.34,2,2.11.82c0,0,2.52-1.37,2.86.87a6.79,6.79,0,0,0,.43-2.15C131.54,19.87,129.47,19.89,129.47,19.89Z"/><path class="cls-3" d="M111.42,13.09,114.08,12l.7,4,0,.12a1.34,1.34,0,0,0,.09.26.91.91,0,0,0,1.22.39L119.56,15l1.8,1.74a.52.52,0,0,0,.67,0,.5.5,0,0,0,.07-.71l-1.91-2.37a.61.61,0,0,0-.7-.19l-.08,0-2.79,1L116.39,10a.92.92,0,0,0,0-.28,1.24,1.24,0,0,0-1.54-.86l-.16,0-4.28,1.23-.19.06a1.6,1.6,0,0,0,1.25,2.94Z"/><path class="cls-3" d="M122,18.59l-3.85-.52a.68.68,0,0,0-.64.28l0,.06-2.13,3.08-2.73-4.08c0-.06-.1-.13-.15-.18a1.22,1.22,0,0,0-1.74,0l-.08.08-4.88,4.82a.94.94,0,0,0-.1.1,1.6,1.6,0,1,0,2.44,2.06l3.47-4.11,3,3.6.06.08a1,1,0,0,0,.25.21.93.93,0,0,0,1.27-.35l2.38-4.16,3.41,0a.49.49,0,0,0,.5-.43A.5.5,0,0,0,122,18.59Z"/><path class="cls-4" d="M129.34,31.11a1.19,1.19,0,0,1-.89-.8,2,2,0,0,1-.12-.87c3.34-.56,6.76-3.52,8.6-7.87,2.53-5.92,1.18-12.17-3-13.95-3.13-1.33-6.95.21-9.74,3.54,0,0-1.55,1.77,1.4,1.93a7.14,7.14,0,0,1,5.75,4.24c1.68,3.41.88,7.24-1.78,8.54-2.37,1.17-5.12.43-6.92-2.28,0,0-.66-1.07-1.17-.05a2.61,2.61,0,0,0,0,2.19,6.68,6.68,0,0,0,3.2,3.28h0a1.3,1.3,0,0,1-.21.89,1.08,1.08,0,0,1-.92.45,10.67,10.67,0,0,0-4.23,1.34h0c-6.77,3.63-10.08,13.5-10.22,13.92a2.2,2.2,0,0,0,1.41,2.78,2.09,2.09,0,0,0,.69.12,2.21,2.21,0,0,0,2.1-1.52,28.2,28.2,0,0,1,5-8.85c-4.63,11.31-3.63,29-3.63,29h5.87C119.15,57.45,121.94,57,121.94,57s2.64-1.26,5.59,10.13h6.6a52.23,52.23,0,0,1-2.78-27.21,26.26,26.26,0,0,1,2.29,10.82A2.2,2.2,0,0,0,135.78,53h.07a2.22,2.22,0,0,0,2.21-2.14c.28-8.83-4.61-16.67-4.82-17C132.26,32,129.34,31.11,129.34,31.11Z"/><path class="cls-5" d="M143.08,10.19a37,37,0,0,0-11-9.69c-2.36-1.37-2.29.52-2.29.52l.08,2.78-1.43,2.62h0a14.88,14.88,0,0,0-2-.15c-1,.05-.59.68-.59.68a4.82,4.82,0,0,0,5.61,1.13,21.62,21.62,0,0,1,6.7,6.52l2.37-1.73,2.09-.53S144.41,12,143.08,10.19Z"/><path class="cls-4" d="M8.87,31.11a1.21,1.21,0,0,0,.89-.8,2.23,2.23,0,0,0,.12-.87c-3.34-.56-6.76-3.52-8.61-7.87C-1.25,15.65.1,9.4,4.28,7.62c3.13-1.33,7,.21,9.74,3.54A20.82,20.82,0,0,1,17,18.86c.42,2.5,1,6.24-.82,7.72-2.35,1.86-7.47-.78-7.49-.71a4.51,4.51,0,0,0,2.5.53,5.73,5.73,0,0,0,4.42-2.81s.66-1.07,1.17-.05a2.57,2.57,0,0,1,0,2.19A6.62,6.62,0,0,1,13.55,29h0a1.27,1.27,0,0,0,.2.89,1.11,1.11,0,0,0,.93.45,10.67,10.67,0,0,1,4.23,1.34h0C25.69,35.31,29,45.18,29.15,45.6a2.2,2.2,0,0,1-1.41,2.78,2.09,2.09,0,0,1-.69.12A2.21,2.21,0,0,1,25,47a28.4,28.4,0,0,0-5-8.85c4.63,11.31,3.63,29,3.63,29H17.7C19.06,57.45,16.26,57,16.26,57s-2.64-1.26-5.58,10.13H4.07A52.23,52.23,0,0,0,6.85,39.93,26.42,26.42,0,0,0,4.56,50.75,2.2,2.2,0,0,1,2.43,53H2.35a2.21,2.21,0,0,1-2.2-2.14c-.28-8.83,4.61-16.67,4.82-17C6,32,8.87,31.11,8.87,31.11Z"/><path class="cls-5" d="M69.47,36.47c3.72,0,7.41,0,11.09,0a1.59,1.59,0,0,0,1.71-1.72c-.06-.83,0-1.67,0-2.5a1.47,1.47,0,0,0-1.61-1.61H69.49l-.08-.11a1.73,1.73,0,0,0,.31-.22l3.86-3.85a1.48,1.48,0,0,0,0-2.27c-.61-.63-1.23-1.24-1.85-1.86a1.48,1.48,0,0,0-2.25,0L59.38,32.43a1.49,1.49,0,0,0,0,2.27l10,10a1.48,1.48,0,0,0,2.32,0c.59-.59,1.19-1.18,1.77-1.78a1.46,1.46,0,0,0,0-2.37c-1.27-1.27-2.54-2.53-3.8-3.8C69.64,36.71,69.52,36.65,69.47,36.47Z"/></g></g></svg>